<?xml version="1.0" encoding="UTF-8"?>
<svg width="320px" height="320px" viewBox="0 0 320 320" version="1.1" xmlns="http://www.w3.org/2000/svg" xmlns:xlink="http://www.w3.org/1999/xlink">
    <title>320*320</title>
    <defs>
        <rect id="path-1" x="0" y="0" width="320" height="320"></rect>
        <linearGradient x1="50%" y1="0%" x2="50%" y2="100%" id="linearGradient-3">
            <stop stop-color="#5AB4FE" offset="0%"></stop>
            <stop stop-color="#A256FF" offset="100%"></stop>
        </linearGradient>
        <linearGradient x1="50%" y1="0%" x2="50%" y2="100%" id="linearGradient-4">
            <stop stop-color="#FFE94E" offset="0%"></stop>
            <stop stop-color="#FCB309" offset="100%"></stop>
        </linearGradient>
        <linearGradient x1="50%" y1="0%" x2="50%" y2="100%" id="linearGradient-5">
            <stop stop-color="#62AAFF" offset="0%"></stop>
            <stop stop-color="#BC3EF8" offset="100%"></stop>
        </linearGradient>
        <linearGradient x1="50%" y1="0%" x2="50%" y2="100%" id="linearGradient-6">
            <stop stop-color="#7C8DFF" offset="0%"></stop>
            <stop stop-color="#9272FF" offset="100%"></stop>
        </linearGradient>
        <linearGradient x1="50%" y1="0%" x2="50%" y2="100%" id="linearGradient-7">
            <stop stop-color="#7794FF" offset="0%"></stop>
            <stop stop-color="#9C66FF" offset="100%"></stop>
        </linearGradient>
    </defs>
    <g id="页面-1" stroke="none" stroke-width="1" fill="none" fill-rule="evenodd">
        <g id="画板" transform="translate(-437.000000, -40.000000)">
            <g id="320*320" transform="translate(437.000000, 40.000000)">
                <mask id="mask-2" fill="white">
                    <use xlink:href="#path-1"></use>
                </mask>
                <use id="蒙版" fill="#D8D8D8" opacity="0" xlink:href="#path-1"></use>
                <g id="编组-4" mask="url(#mask-2)">
                    <g transform="translate(151.000000, 164.500000) rotate(-8.000000) translate(-151.000000, -164.500000) translate(30.760577, 23.275425)">
                        <rect id="矩形" stroke="none" fill="#4C79A7" x="-5.68434189e-14" y="16.4491506" width="221" height="266" rx="14.4"></rect>
                        <rect id="矩形" stroke="url(#linearGradient-3)" stroke-width="10.8" fill="#FFFFFF" x="19.4788461" y="-5.68434189e-14" width="221" height="266" rx="14.4"></rect>
                        <g id="羊" stroke="none" stroke-width="1" fill="none" transform="translate(64.397545, 30.657627)">
                            <rect id="矩形" fill="#000000" fill-rule="nonzero" opacity="0" x="0" y="0" width="131.162602" height="131.647458"></rect>
                            <path d="M97.7955531,40.9212752 C97.3216257,30.0963573 88.3682411,21.3798557 77.4679116,21.3798557 L57.5373444,21.3798557 C46.4320733,21.3798557 37.3506002,30.4177622 37.1840852,41.5255164 C33.6232255,42.1811825 30.8949409,45.3309507 30.8949409,49.0849603 C30.8949409,53.3275053 34.3533298,56.7858223 38.5674408,56.7858223 L43.0761552,56.7858223 C43.2810968,56.7858223 43.4604206,56.7472537 43.6653622,56.7215413 C47.3158838,60.1412897 52.183246,62.2625622 57.5501532,62.2625622 L77.4807204,62.2625622 C82.6939215,62.2625622 87.446004,60.2569955 91.0452903,57.0043776 C91.6985415,57.222933 92.3902193,57.3772074 93.1203236,57.3772074 C96.7324187,57.3772074 99.6912625,54.4074258 99.6912625,50.7819783 L99.6912625,45.5237937 C99.6912625,43.7367823 98.9611582,42.1040453 97.7955531,40.9212752 Z" id="路径" fill="url(#linearGradient-4)" fill-rule="nonzero"></path>
                            <path d="M107.491851,48.4550066 C107.158821,44.1353244 105.109405,40.1756157 101.855958,37.450102 C102.368312,34.7374444 102.150561,31.9347934 101.177089,29.1835673 C100.037101,25.969518 97.8467885,23.1540109 94.9904154,21.3027185 C90.1486709,18.1658064 84.6280575,17.9472511 80.0168723,19.965674 C77.1476904,15.7745538 72.3443725,13.1004648 66.9774652,13.1004648 C62.0588677,13.1004648 57.5245355,15.4402926 54.5785005,19.1685898 C51.0176408,17.6515585 46.9060007,17.4587156 42.8327871,18.8471849 C36.5180251,21.007026 32.5088558,27.1394319 32.5088558,33.8375106 C32.5088558,33.991785 32.5088558,34.1460593 32.5216646,34.3003337 C27.2316105,36.8972855 23.6195154,42.3354568 23.5810888,48.480719 C16.9332968,49.9977503 11.950655,55.9630257 11.950655,63.0853588 C11.950655,71.3518935 18.6496824,78.0756846 26.8857716,78.0756846 C27.4877874,78.0756846 28.6277749,77.9985474 29.9086596,77.844273 L29.9086596,84.2080906 C29.9086596,103.158125 45.2664682,118.559849 64.133901,118.559849 L67.0287006,118.559849 C85.9089423,118.559849 101.253942,103.145269 101.253942,84.2080906 L101.253942,77.7285673 C102.240223,77.9342664 103.239313,78.0756846 104.27683,78.0756846 C112.512919,78.0756846 119.211947,71.3518935 119.211947,63.0853588 C119.211947,55.9244571 114.178069,49.9334693 107.491851,48.4550066 L107.491851,48.4550066 Z M31.0102206,68.0992757 C29.7165269,68.3435434 27.6671113,68.5878112 26.8857716,68.5878112 C23.8628835,68.5878112 21.4035847,66.1194213 21.4035847,63.0853588 C21.4035847,60.2055707 23.6323242,57.8528867 26.4502707,57.6214751 C28.0641856,59.9098782 30.2544985,61.7611706 32.7650327,62.9696531 C32.0349284,64.6281025 31.4585302,66.3379767 31.0102206,68.0992757 Z M91.8138211,84.2080906 C91.8138211,96.8071637 82.4249357,107.220683 70.3077657,108.840564 L70.3077657,98.722737 L72.3571813,98.722737 C74.9573774,98.722737 77.0836462,96.5886083 77.0836462,93.9788003 C77.0836462,91.3689923 74.9573774,89.2348636 72.3571813,89.2348636 L58.8054203,89.2348636 C56.2052242,89.2348636 54.0789555,91.3689923 54.0789555,93.9788003 C54.0789555,96.5886083 56.2052242,98.722737 58.8054203,98.722737 L60.854836,98.722737 L60.854836,108.840564 C48.7376659,107.220683 39.3487805,96.8071637 39.3487805,84.2080906 L39.3487805,76.6357905 C39.3487805,72.2004025 40.5784299,67.9064327 42.8199782,64.0881422 C43.3067145,63.9852926 43.7934507,63.8952993 44.267378,63.7410249 C47.213413,67.469322 51.7349363,69.7705813 56.640725,69.7705813 C59.6508043,69.7705813 62.532795,68.9092161 65.0305204,67.3279039 C67.7203784,69.3206144 71.0122523,70.4391035 74.4322147,70.4391035 C79.1586795,70.4391035 83.577732,68.2792624 86.5493847,64.7438083 C87.3819598,65.0395008 88.2273438,65.2323438 89.0983454,65.3737619 C89.3929489,65.9522908 89.6619347,66.5308197 89.9181117,67.1350609 C90.1102444,67.8421517 90.3664213,68.5235302 90.6610248,69.1791962 C91.4167469,71.5704489 91.8138211,74.0774073 91.8138211,76.6357905 L91.8138211,84.2080906 Z M97.6546557,52.131879 C96.8989337,54.0474523 95.1697393,55.5002026 93.171559,55.9630257 C90.6610248,56.5415546 88.7909331,55.525915 87.7662252,54.7159746 L87.535666,54.5359878 C85.1404114,52.6332707 81.5923606,53.6231978 80.5164174,56.4901298 L80.4139466,56.7601099 C79.3508122,59.5756171 76.5841011,61.2854913 73.561213,60.8869492 C71.6911212,60.6426814 70.0643975,59.4727675 69.0012632,57.9171676 C67.2848776,55.4359216 63.6727825,55.2945034 61.777073,57.6343313 L61.5977491,57.8528867 C60.3552909,59.3956303 58.5492434,60.2698517 56.640725,60.2698517 C53.9252493,60.2698517 51.5043771,58.5214089 50.6077577,55.9116009 L50.5180958,55.6416208 C49.5190057,52.723264 45.9709548,51.6433435 43.5244649,53.5074921 L43.2939056,53.6874788 C42.2563889,54.4717068 40.3734883,55.4487778 37.8629541,54.8316803 C35.8647739,54.3302887 34.1611971,52.8261136 33.4439016,50.8976841 C31.9324576,46.8351258 34.6479333,42.7982799 38.5546319,42.2583197 L38.7467646,42.2326073 C41.6159466,41.8340651 43.3963764,38.889996 42.422904,36.1644823 L42.3588597,35.9844955 C41.5519023,33.6960924 41.9745943,32.0762116 43.4219941,30.1220697 C44.6260258,28.5021888 46.4320733,27.3965559 48.4430624,27.4094121 C50.1466392,27.4222683 51.7349363,28.1036467 52.938968,29.3249854 L53.1182919,29.5178284 C55.5775907,32.0119306 59.8045104,30.9320101 60.765174,27.5508302 L60.8420271,27.2937063 C61.8154996,23.8482455 65.47883,21.7012606 69.0781163,22.9483117 C71.3709,23.7453959 72.9335795,25.8923808 73.3306537,28.2964897 C73.9582873,32.101924 78.7103698,33.4775371 81.2593305,30.5848927 L81.477081,30.340625 C82.7195392,28.9392995 84.3974983,28.1550715 86.1907369,28.1422153 C88.1120641,28.1293591 89.9181117,29.1707111 91.1477611,30.6620299 C92.8513378,32.7318776 93.0947059,35.0974179 91.9675273,37.3986772 C90.7891133,39.8156422 91.8394388,42.7339989 94.2859288,43.8139195 C97.3600522,45.1766764 98.9995848,48.737843 97.6546557,52.131879 L97.6546557,52.131879 Z M104.27683,68.5878112 C102.27865,68.5878112 100.446985,67.4950344 99.4735121,65.7337354 C99.3069971,65.2323438 99.1148644,64.7438083 98.9355405,64.2552728 C98.9099228,64.1267108 98.9099228,63.9981488 98.8843051,63.8695869 C101.599781,62.4811176 103.866947,60.3341327 105.404009,57.6857561 C107.888925,58.2128602 109.759017,60.4241261 109.759017,63.0725026 C109.759017,66.1194213 107.299718,68.5878112 104.27683,68.5878112 Z" id="形状" fill="url(#linearGradient-5)" fill-rule="nonzero"></path>
                        </g>
                        <g id="编组-3" stroke="none" stroke-width="1" fill="none" transform="translate(71.584537, 180.338983)">
                            <rect id="矩形" stroke="url(#linearGradient-6)" stroke-width="3.6" x="0" y="0" width="116.788618" height="54.1016949" rx="9"></rect>
                            <path d="M18.2371378,37.9118358 L18.5725138,37.9050358 C19.6333138,37.8642358 20.6686138,37.6806358 21.6784138,37.3542358 C22.6882138,37.0278358 23.5858138,36.5535358 24.3712138,35.9313358 C25.1566138,35.3091358 25.7890138,34.5390358 26.2684138,33.6210358 C26.7478138,32.7030358 27.0079138,31.5912358 27.0487138,30.2856358 C27.0691138,28.9800358 26.9161138,27.8835358 26.5897138,26.9961358 C26.2633138,26.1087358 25.8145138,25.3386358 25.2433138,24.6858358 C24.6721138,24.0330358 24.0091138,23.5026358 23.2543138,23.0946358 C22.4995138,22.6866358 21.7141138,22.3194358 20.8981138,21.9930358 L20.8981138,21.9930358 L20.5003138,21.9318358 C19.5823138,21.6054358 18.8887138,21.3249358 18.4195138,21.0903358 C17.9503138,20.8557358 17.7157138,20.4732358 17.7157138,19.9428358 C17.7157138,19.6368358 17.7973138,19.3818358 17.9605138,19.1778358 C18.1237138,18.9738358 18.3175138,18.7953358 18.5419138,18.6423358 C18.7663138,18.4893358 19.0162138,18.3873358 19.2916138,18.3363358 C19.5670138,18.2853358 19.8271138,18.2598358 20.0719138,18.2598358 C20.8879138,18.2394358 21.7498138,18.4128358 22.6576138,18.7800358 C23.5654138,19.1472358 24.7537138,19.7082358 26.2225138,20.4630358 L26.2225138,20.4630358 L26.2225138,14.1288358 C25.8961138,13.9044358 25.4014138,13.6953358 24.7384138,13.5015358 C24.0754138,13.3077358 23.5093138,13.1394358 23.0401138,12.9966358 C22.5709138,12.8538358 22.0966138,12.7467358 21.6172138,12.6753358 C21.1378138,12.6039358 20.6737138,12.5682358 20.2249138,12.5682358 C18.8581138,12.5682358 17.5933138,12.7365358 16.4305138,13.0731358 C15.2677138,13.4097358 14.2783138,13.9248358 13.4623138,14.6184358 C12.6463138,15.3120358 12.0292138,16.1994358 11.6110138,17.2806358 C11.1928138,18.3618358 11.0041138,19.6368358 11.0449138,21.1056358 C11.0653138,21.9420358 11.2132138,22.7070358 11.4886138,23.4006358 C11.7640138,24.0942358 12.1261138,24.6960358 12.5749138,25.2060358 C13.0237138,25.7160358 13.5541138,26.1546358 14.1661138,26.5218358 C14.7781138,26.8890358 15.4207138,27.1950358 16.0939138,27.4398358 C17.0119138,27.6846358 17.7361138,27.9294358 18.2665138,28.1742358 C18.7969138,28.4190358 19.2100138,28.6536358 19.5058138,28.8780358 C19.8016138,29.1024358 19.9852138,29.3472358 20.0566138,29.6124358 C20.1280138,29.8776358 20.1535138,30.1428358 20.1331138,30.4080358 C20.0515138,30.8772358 19.8220138,31.1883358 19.4446138,31.3413358 C19.0672138,31.4943358 18.6031138,31.5708358 18.0523138,31.5708358 C17.8279138,31.5708358 17.5933138,31.5606358 17.3485138,31.5402358 L17.3485138,31.5402358 L16.6753138,31.4484358 C16.1245138,31.3872358 15.5890138,31.2597358 15.0688138,31.0659358 C14.5486138,30.8721358 14.0386138,30.6477358 13.5388138,30.3927358 C13.0390138,30.1377358 12.5800138,29.8674358 12.1618138,29.5818358 C11.7436138,29.2962358 11.3815138,29.0106358 11.0755138,28.7250358 L11.0755138,28.7250358 L11.0755138,36.3444358 C11.9323138,36.5280358 12.6463138,36.7218358 13.2175138,36.9258358 C13.7887138,37.1298358 14.3701138,37.3134358 14.9617138,37.4766358 C15.5533138,37.6398358 16.1653138,37.7571358 16.7977138,37.8285358 C17.4301138,37.8999358 18.0217138,37.9254358 18.5725138,37.9050358 L18.2371378,37.9118358 Z M35.0965138,37.5072358 L35.0965138,28.5414358 L42.0733138,28.5414358 L42.0733138,37.4766358 L48.1627138,37.4766358 L48.1627138,12.5376358 L42.0733138,12.5376358 L42.0733138,21.7788358 L35.0965138,21.7788358 L35.0965138,12.5682358 L28.9765138,12.5682358 L28.9765138,37.5072358 L35.0965138,37.5072358 Z M67.0123138,37.4766358 L67.0123138,31.2648358 L56.8837138,31.2648358 C56.8837138,30.9996358 56.8888138,30.6324358 56.8990138,30.1632358 C56.9092138,29.6940358 56.9143138,29.3982358 56.9143138,29.2758358 C56.9143138,28.9290358 56.9194138,28.5975358 56.9296138,28.2813358 C56.9398138,27.9651358 56.9347138,27.6132358 56.9143138,27.2256358 L56.9143138,27.2256358 L65.2069138,27.2256358 L65.2069138,21.7788358 L56.8837138,21.7788358 L56.8837138,18.3516358 L67.0123138,18.3516358 L67.0123138,12.5376358 L50.7637138,12.5376358 L50.7637138,37.4766358 L67.0123138,37.4766358 Z M85.8313138,37.4766358 L85.8313138,31.2648358 L75.7027138,31.2648358 C75.7027138,30.9996358 75.7078138,30.6324358 75.7180138,30.1632358 C75.7282138,29.6940358 75.7333138,29.3982358 75.7333138,29.2758358 C75.7333138,28.9290358 75.7384138,28.5975358 75.7486138,28.2813358 C75.7588138,27.9651358 75.7537138,27.6132358 75.7333138,27.2256358 L75.7333138,27.2256358 L84.0259138,27.2256358 L84.0259138,21.7788358 L75.7027138,21.7788358 L75.7027138,18.3516358 L85.8313138,18.3516358 L85.8313138,12.5376358 L69.5827138,12.5376358 L69.5827138,37.4766358 L85.8313138,37.4766358 Z M94.7053138,37.5072358 L94.7053138,29.5818358 L97.6429138,29.5818358 C98.8669138,29.5818358 99.9940138,29.4186358 101.024214,29.0922358 C102.054414,28.7658358 102.936714,28.2660358 103.671114,27.5928358 C104.405514,26.9196358 104.981814,26.0679358 105.400014,25.0377358 C105.818214,24.0075358 106.027314,22.7478358 106.027314,21.2586358 C106.027314,19.7898358 105.823314,18.5097358 105.415314,17.4183358 C105.007314,16.3269358 104.446314,15.4140358 103.732314,14.6796358 C103.018314,13.9452358 102.187014,13.4046358 101.238414,13.0578358 C100.289814,12.7110358 99.2647138,12.5376358 98.1631138,12.5376358 L98.1631138,12.5376358 L88.5241138,12.5376358 L88.5241138,37.5072358 L94.7053138,37.5072358 Z M97.0615138,24.0432358 L94.7053138,24.0432358 L94.7053138,18.4434358 L97.0921138,18.4434358 C97.5001138,18.4434358 97.8775138,18.4893358 98.2243138,18.5811358 C98.5711138,18.6729358 98.8873138,18.8208358 99.1729138,19.0248358 C99.4585138,19.2288358 99.6880138,19.5195358 99.8614138,19.8969358 C100.034814,20.2743358 100.121514,20.7384358 100.121514,21.2892358 C100.121514,21.8400358 100.024614,22.2888358 99.8308138,22.6356358 C99.6370138,22.9824358 99.3922138,23.2680358 99.0964138,23.4924358 C98.8006138,23.7168358 98.4742138,23.8647358 98.1172138,23.9361358 C97.7602138,24.0075358 97.4083138,24.0432358 97.0615138,24.0432358 L97.0615138,24.0432358 Z" id="SHEEP" fill="url(#linearGradient-7)" fill-rule="nonzero"></path>
                        </g>
                    </g>
                </g>
            </g>
        </g>
    </g>
</svg>