<?xml version="1.0" encoding="UTF-8"?>
<svg width="24px" height="24px" viewBox="0 0 24 24" version="1.1" xmlns="http://www.w3.org/2000/svg" xmlns:xlink="http://www.w3.org/1999/xlink">
    <title>24*24</title>
    <defs>
        <rect id="path-1" x="0" y="0" width="24" height="24"></rect>
        <linearGradient x1="50%" y1="0%" x2="50%" y2="100%" id="linearGradient-3">
            <stop stop-color="#5AB4FE" offset="0%"></stop>
            <stop stop-color="#A256FF" offset="100%"></stop>
        </linearGradient>
        <linearGradient x1="50%" y1="0%" x2="50%" y2="100%" id="linearGradient-4">
            <stop stop-color="#FFE94E" offset="0%"></stop>
            <stop stop-color="#FCB309" offset="100%"></stop>
        </linearGradient>
        <linearGradient x1="50%" y1="0%" x2="50%" y2="100%" id="linearGradient-5">
            <stop stop-color="#62AAFF" offset="0%"></stop>
            <stop stop-color="#BC3EF8" offset="100%"></stop>
        </linearGradient>
    </defs>
    <g id="页面-1" stroke="none" stroke-width="1" fill="none" fill-rule="evenodd">
        <g id="画板" transform="translate(-43.000000, -155.000000)">
            <g id="24*24" transform="translate(43.000000, 155.000000)">
                <mask id="mask-2" fill="white">
                    <use xlink:href="#path-1"></use>
                </mask>
                <use id="蒙版" fill="#D8D8D8" opacity="0" xlink:href="#path-1"></use>
                <g id="编组-4" mask="url(#mask-2)">
                    <g transform="translate(12.000000, 12.157873) rotate(-8.000000) translate(-12.000000, -12.157873) translate(3.913308, 2.075989)">
                        <g transform="translate(-0.000000, 0.000000)">
                            <path d="M1.04266222,0.851094968 L14.040669,0.851094968 C14.5935028,0.851094968 15.041663,1.29925524 15.041663,1.85208896 C15.041663,1.85284817 15.0416622,1.85360737 15.0416604,1.85436658 L15.0022724,19.1650511 C15.0010166,19.7169941 14.5532255,20.1637674 14.001281,20.1637674 L1.00327421,20.1637674 C0.450440488,20.1637674 0.00228021123,19.7156072 0.00228021123,19.1627734 C0.00228021123,19.1620142 0.00228107496,19.161255 0.00228280242,19.1604958 L0.0416708127,1.84981135 C0.0429266809,1.29786831 0.490717753,0.851094968 1.04266222,0.851094968 Z" id="矩形" fill="#4C79A7"></path>
                            <rect id="矩形" stroke="url(#linearGradient-3)" stroke-width="0.750745496" fill="#FFFFFF" x="1.17338442" y="0" width="15" height="19" rx="1.00099399"></rect>
                            <g id="羊" transform="translate(2.102537, 2.944310)" fill-rule="nonzero">
                                <rect id="矩形" fill="#000000" opacity="0" x="-6.72205988e-14" y="2.13009545e-13" width="13.0081301" height="13.740113"></rect>
                                <path d="M9.69893293,4.27097458 C9.65193089,3.14117232 8.76397358,2.23142655 7.68292683,2.23142655 L5.70630081,2.23142655 C4.60492886,2.23142655 3.70426829,3.17471751 3.68775407,4.33403955 C3.33460366,4.40247175 3.06402439,4.73121469 3.06402439,5.1230226 C3.06402439,5.56581921 3.4070122,5.92676554 3.82494919,5.92676554 L4.27210366,5.92676554 C4.29242886,5.92676554 4.31021341,5.92274011 4.33053862,5.9200565 C4.6925813,6.2769774 5.17530488,6.49837571 5.70757114,6.49837571 L7.68419715,6.49837571 C8.20121951,6.49837571 8.67251016,6.28905367 9.02947154,5.94957627 C9.09425813,5.97238701 9.16285569,5.9884887 9.23526423,5.9884887 C9.59349593,5.9884887 9.88694106,5.67853107 9.88694106,5.30014124 L9.88694106,4.75134181 C9.88694106,4.56483051 9.81453252,4.3944209 9.69893293,4.27097458 Z" id="路径" fill="url(#linearGradient-4)"></path>
                                <path d="M10.6605691,5.05727401 C10.6275407,4.60642655 10.4242886,4.19314972 10.101626,3.90868644 C10.152439,3.62556497 10.1308435,3.33305085 10.0342988,3.04590395 C9.92123984,2.71045198 9.70401423,2.41659605 9.42073171,2.22337571 C8.94054878,1.89597458 8.39303862,1.87316384 7.93572154,2.08382768 C7.6511687,1.64639831 7.17479675,1.36730226 6.64253049,1.36730226 C6.15472561,1.36730226 5.70503049,1.6115113 5.41285569,2.00063559 C5.05970528,1.84230226 4.65193089,1.82217514 4.24796748,1.9670904 C3.62169715,2.19251412 3.22408537,2.8325565 3.22408537,3.53163842 C3.22408537,3.54774011 3.22408537,3.56384181 3.22535569,3.5799435 C2.70071138,3.8509887 2.34247967,4.41857345 2.3386687,5.05995763 C1.67936992,5.21829096 1.18521341,5.84088983 1.18521341,6.58425141 C1.18521341,7.4470339 1.8495935,8.14879944 2.6664126,8.14879944 C2.72611789,8.14879944 2.83917683,8.14074859 2.96620935,8.12464689 L2.96620935,8.78884181 C2.96620935,10.7666667 4.48932927,12.3741525 6.36051829,12.3741525 L6.64761179,12.3741525 C8.52007114,12.3741525 10.0419207,10.7653249 10.0419207,8.78884181 L10.0419207,8.11257062 C10.1397358,8.13403955 10.2388211,8.14879944 10.3417175,8.14879944 C11.1585366,8.14879944 11.8229167,7.4470339 11.8229167,6.58425141 C11.8229167,5.83686441 11.3236789,5.21158192 10.6605691,5.05727401 L10.6605691,5.05727401 Z M3.07545732,7.1075565 C2.94715447,7.13305085 2.74390244,7.1585452 2.6664126,7.1585452 C2.36661585,7.1585452 2.12271341,6.90091808 2.12271341,6.58425141 C2.12271341,6.28368644 2.34375,6.03813559 2.62322154,6.01398305 C2.78328252,6.25282486 3.00050813,6.4460452 3.24949187,6.57217514 C3.17708333,6.74526836 3.1199187,6.92372881 3.07545732,7.1075565 Z M9.10569106,8.78884181 C9.10569106,10.1038136 8.17454268,11.190678 6.97281504,11.3597458 L6.97281504,10.3037429 L7.17606707,10.3037429 C7.43394309,10.3037429 7.64481707,10.0810028 7.64481707,9.80861582 C7.64481707,9.53622881 7.43394309,9.3134887 7.17606707,9.3134887 L5.83206301,9.3134887 C5.57418699,9.3134887 5.36331301,9.53622881 5.36331301,9.80861582 C5.36331301,10.0810028 5.57418699,10.3037429 5.83206301,10.3037429 L6.03531504,10.3037429 L6.03531504,11.3597458 C4.8335874,11.190678 3.90243902,10.1038136 3.90243902,8.78884181 L3.90243902,7.99851695 C3.90243902,7.53559322 4.02439024,7.08742938 4.24669715,6.68891243 C4.29496951,6.67817797 4.34324187,6.66878531 4.3902439,6.65268362 C4.6824187,7.04180791 5.1308435,7.28199153 5.61737805,7.28199153 C5.91590447,7.28199153 6.20172764,7.1920904 6.44944106,7.02704802 C6.71620935,7.23502825 7.04268293,7.35176554 7.38185976,7.35176554 C7.85060976,7.35176554 8.28887195,7.12634181 8.5835874,6.75734463 C8.66615854,6.78820621 8.75,6.80833333 8.83638211,6.82309322 C8.86559959,6.88347458 8.89227642,6.94385593 8.91768293,7.0069209 C8.9367378,7.08072034 8.96214431,7.15183616 8.99136179,7.22026836 C9.06631098,7.46984463 9.10569106,7.73149718 9.10569106,7.99851695 L9.10569106,8.78884181 Z M9.68495935,5.44103107 C9.61001016,5.64096045 9.43851626,5.79258475 9.24034553,5.84088983 C8.99136179,5.90127119 8.80589431,5.79526836 8.70426829,5.71073446 L8.68140244,5.69194915 C8.44385163,5.49336158 8.09197154,5.59668079 7.98526423,5.89590395 L7.97510163,5.92408192 C7.86966463,6.21793785 7.59527439,6.39639831 7.29547764,6.35480226 C7.11001016,6.32930791 6.94867886,6.20720339 6.84324187,6.04484463 C6.67301829,5.78587571 6.31478659,5.77111582 6.12677846,6.01532486 L6.1089939,6.03813559 C5.98577236,6.19915254 5.8066565,6.29039548 5.61737805,6.29039548 C5.34806911,6.29039548 5.10797764,6.1079096 5.01905488,5.8355226 L5.0101626,5.80734463 C4.91107724,5.50275424 4.55919715,5.39004237 4.31656504,5.58460452 L4.29369919,5.60338983 C4.19080285,5.68524011 4.00406504,5.78721751 3.7550813,5.72281073 C3.55691057,5.67048023 3.38795732,5.5134887 3.31681911,5.31221751 C3.16692073,4.88820621 3.43622967,4.46687853 3.82367886,4.4105226 L3.84273374,4.40783898 C4.12728659,4.36624294 4.30386179,4.05896893 4.20731707,3.77450565 L4.20096545,3.75572034 C4.12093496,3.51687853 4.16285569,3.34781073 4.30640244,3.14385593 C4.42581301,2.97478814 4.60492886,2.85939266 4.80436992,2.86073446 C4.97332317,2.86207627 5.1308435,2.93319209 5.25025407,3.06066384 L5.26803862,3.08079096 C5.51194106,3.34110169 5.93114837,3.22838983 6.02642276,2.87549435 L6.03404472,2.84865819 C6.13058943,2.48905367 6.49390244,2.26497175 6.85086382,2.39512712 C7.07825203,2.47831921 7.23323171,2.70240113 7.27261179,2.95331921 C7.33485772,3.35049435 7.80614837,3.4940678 8.05894309,3.19216102 L8.08053862,3.16666667 C8.20376016,3.0204096 8.37017276,2.93855932 8.54801829,2.93721751 C8.73856707,2.93587571 8.91768293,3.04456215 9.03963415,3.20021186 C9.2085874,3.41624294 9.23272358,3.66313559 9.12093496,3.90331921 C9.00406504,4.1555791 9.10823171,4.46016949 9.35086382,4.57288136 C9.65574187,4.71511299 9.8183435,5.08679379 9.68495935,5.44103107 L9.68495935,5.44103107 Z M10.3417175,7.1585452 C10.1435467,7.1585452 9.96189024,7.04449153 9.86534553,6.86066384 C9.8488313,6.80833333 9.82977642,6.75734463 9.81199187,6.70635593 C9.80945122,6.69293785 9.80945122,6.67951977 9.80691057,6.66610169 C10.0762195,6.52118644 10.3010671,6.29710452 10.4535061,6.02069209 C10.6999492,6.07570621 10.8854167,6.30649718 10.8854167,6.5829096 C10.8854167,6.90091808 10.6415142,7.1585452 10.3417175,7.1585452 Z" id="形状" fill="url(#linearGradient-5)"></path>
                            </g>
                        </g>
                    </g>
                </g>
            </g>
        </g>
    </g>
</svg>