<?xml version="1.0" encoding="UTF-8"?>
<svg width="48px" height="48px" viewBox="0 0 48 48" version="1.1" xmlns="http://www.w3.org/2000/svg" xmlns:xlink="http://www.w3.org/1999/xlink">
    <title>用户体验</title>
    <defs>
        <linearGradient x1="50%" y1="0%" x2="50%" y2="100%" id="linearGradient-1">
            <stop stop-color="#4CC6FF" offset="0%"></stop>
            <stop stop-color="#AC3FFE" offset="100%"></stop>
        </linearGradient>
        <circle id="path-2" cx="21.5" cy="17.5" r="13.5"></circle>
        <linearGradient x1="50%" y1="0.758628578%" x2="50%" y2="100%" id="linearGradient-3">
            <stop stop-color="#FCFCFC" offset="0%"></stop>
            <stop stop-color="#D8D8FB" offset="100%"></stop>
        </linearGradient>
        <path d="M25.5021803,9 L28,13.0788537 L22,20 L16,13.0788537 L18.4978197,9 L25.5021803,9 Z M24,11 L20,11 L20,12 L24,12 L24,11 Z" id="path-4"></path>
        <path d="M10.9051933,17.8348624 C10.9051933,17.8348624 9.36563662,18.7018349 6.54311599,16.2247706 C6.54311599,16.2247706 4.61867011,14.6146789 5.77333764,14.2431193 C7.00200839,13.976666 8.24377263,13.7699833 9.493933,13.6238532 C11.4183789,13.3761468 12.5730464,13.2522936 12.5730464,13.2522936 C12.5730464,13.2522936 6.67141236,13.3761468 5.26015206,13.1284404 C3.84889176,12.8807339 2.05274225,10.6513762 1.66785311,8.66972477 C1.66785311,8.66972477 1.02637116,7.55504588 2.95081701,8.05045873 C4.74696648,8.54587158 12.44475,10.0321101 12.44475,10.0321101 C12.4447501,10.0321101 2.43763146,7.05963302 1.79614948,6.31651376 C0.625727549,4.5393163 0.00279690955,2.47752015 0,0.371559633 C0,0.123853221 0.256592774,0 0.513185578,0 L0.64148195,0 C0.64148195,0 8.08267269,3.22018347 13.086232,5.07798167 C18.0897913,6.93577986 22.580165,7.80275232 21.938683,10.1559633 C15.2672706,15.1100917 11.5894407,17.6697248 10.9051933,17.8348624 Z" id="path-5"></path>
        <path d="M10.9051933,17.8348624 C10.9051933,17.8348624 9.36563662,18.7018349 6.54311599,16.2247706 C6.54311599,16.2247706 4.61867011,14.6146789 5.77333764,14.2431193 C7.00200839,13.976666 8.24377263,13.7699833 9.493933,13.6238532 C11.4183789,13.3761468 12.5730464,13.2522936 12.5730464,13.2522936 C12.5730464,13.2522936 6.67141236,13.3761468 5.26015206,13.1284404 C3.84889176,12.8807339 2.05274225,10.6513762 1.66785311,8.66972477 C1.66785311,8.66972477 1.02637116,7.55504588 2.95081701,8.05045873 C4.74696648,8.54587158 12.44475,10.0321101 12.44475,10.0321101 C12.4447501,10.0321101 2.43763146,7.05963302 1.79614948,6.31651376 C0.625727549,4.5393163 0.00279690955,2.47752015 0,0.371559633 C0,0.123853221 0.256592774,0 0.513185578,0 L0.64148195,0 C0.64148195,0 8.08267269,3.22018347 13.086232,5.07798167 C18.0897913,6.93577986 22.580165,7.80275232 21.938683,10.1559633 C15.2672706,15.1100917 11.5894407,17.6697248 10.9051933,17.8348624 Z" id="path-7"></path>
    </defs>
    <g id="页面-1" stroke="none" stroke-width="1" fill="none" fill-rule="evenodd">
        <g id="画板" transform="translate(-258.000000, -41.000000)">
            <g id="用户体验" transform="translate(258.000000, 41.000000)">
                <rect id="矩形" fill="#E8EAED" x="0" y="0" width="48" height="48" rx="6"></rect>
                <g id="编组" transform="translate(2.000000, 6.000000)">
                    <circle id="椭圆形" fill="#4D4BE2" cx="21.5" cy="17.5" r="17.5"></circle>
                    <g id="椭圆形">
                        <use fill="#2A34E1" xlink:href="#path-2"></use>
                        <use fill="url(#linearGradient-1)" xlink:href="#path-2"></use>
                    </g>
                    <g id="形状结合">
                        <use fill="#D8D8D8" xlink:href="#path-4"></use>
                        <use fill="url(#linearGradient-3)" xlink:href="#path-4"></use>
                    </g>
                    <g id="路径-2" transform="translate(0.000000, 17.000000)">
                        <mask id="mask-6" fill="white">
                            <use xlink:href="#path-5"></use>
                        </mask>
                        <use id="蒙版" fill="#FFFFFF" fill-rule="nonzero" xlink:href="#path-5"></use>
                        <polygon fill="#C5C8FD" mask="url(#mask-6)" points="-1.11022302e-16 3.23726106 22 9.89368452 12.44475 10.0321101 1.4943975 7.14835828 -0.60171087 5"></polygon>
                        <path d="M2.41095119,10.699285 L12.3554328,11.4605345 L22,9.9628973 L20.1347431,12.6560196 C14.965952,13.1038216 12.2593878,13.3277225 12.0150507,13.3277225 C11.7707137,13.3277225 9.07395738,13.4426169 3.92478193,13.6724057 L1.60029066,11.4605345 L2.41095119,10.699285 Z" id="路径" fill="#C5C8FD" mask="url(#mask-6)"></path>
                        <polygon id="路径-3" fill="#C5C8FD" mask="url(#mask-6)" points="17.695721 12.9352817 7.24073319 17.5672448 9.22880892 19.5281 22 13.2818779 19.2000783 12.1858454"></polygon>
                    </g>
                    <g id="路径-2" transform="translate(33.000000, 25.990929) scale(-1, 1) translate(-33.000000, -25.990929) translate(22.000000, 17.000000)">
                        <mask id="mask-8" fill="white">
                            <use xlink:href="#path-7"></use>
                        </mask>
                        <use id="蒙版" fill="#FFFFFF" fill-rule="nonzero" xlink:href="#path-7"></use>
                        <polygon fill="#C5C8FD" mask="url(#mask-8)" points="4.4408921e-16 3.23726106 22 9.89368452 12.44475 10.0321101 1.4943975 7.14835828 -0.60171087 5"></polygon>
                        <path d="M2.41095119,10.699285 L12.3554328,11.4605345 L22,9.9628973 L20.1347431,12.6560196 C14.965952,13.1038216 12.2593878,13.3277225 12.0150507,13.3277225 C11.7707137,13.3277225 9.07395738,13.4426169 3.92478193,13.6724057 L1.60029066,11.4605345 L2.41095119,10.699285 Z" id="路径" fill="#C5C8FD" mask="url(#mask-8)"></path>
                        <polygon id="路径-3" fill="#C5C8FD" mask="url(#mask-8)" points="17.695721 12.9352817 7.24073319 17.5672448 9.22880892 19.5281 22 13.2818779 19.2000783 12.1858454"></polygon>
                    </g>
                    <polygon id="多边形" fill="#748DFF" points="21.5 23 27 28.5 21.5 34 16 28.5"></polygon>
                    <polygon id="路径" fill="#4D4BE2" points="21.5 23 27 28.5 21.5 34"></polygon>
                </g>
            </g>
        </g>
    </g>
</svg>